<?xml version="1.0" encoding="UTF-8"?><svg id="Layer_2" xmlns="http://www.w3.org/2000/svg" viewBox="0 0 612.71 792.24"><g id="Layer_1-2"><path fill='#e28224' d="M575.57,214.65c-103.97,91.74-312.33,209.08-452.1,147.59C51.88,330.94,17.21,261.16,11.89,186.4c-2.35-34.05-.81-67.76,12.72-102.04C47.25,27.13,102.53-5.42,163.17,.74c55.05,5.57,102.08,34.88,144.35,66.73,106,83.57,198.12,202.1,258.26,322.53,24.29,50.9,45.85,106.3,46.94,165.18,.04,12.14-.88,24.36-2.72,36.45-22.57,147.86-163.82,223.61-303.45,194.43C169.49,757.99,59.94,650.22,0,528.79c81.4,56.26,169.7,111.25,268.57,126.83,54.05,8.19,124.08,3.58,157.08-43.52,9.85-14.75,12.95-32.35,11.21-49.87,0,0-.19-.98-.19-.98l-.52-2.64c-22.43-102.77-198.16-333.08-292.42-380.54-.89-.48-1.03-.62,.21-.67,2.99,.09,11.27-1.24,15.83-3.3,8.95-3.36,20.7-12.57,22.94-21.41,.05-.74-.5-.29-1.07,1.03-1.21,2.63-2.59,8.27-3.48,14.88-.64,4.87-1.13,10.85-1.47,15.8-.6,9.66-.49,19.74,1.08,28.97,1.4,8.67,3.88,16.53,10.92,22.28,68.12,52.11,301.09-3.91,386.87-20.99h0Z"/></g></svg>